<?xml version="1.0" encoding="UTF-8"?>
<svg xmlns:xodm="http://www.corel.com/coreldraw/odm/2003" xmlns="http://www.w3.org/2000/svg" xmlns:xlink="http://www.w3.org/1999/xlink" version="1.1" id="Layer_1" x="0px" y="0px" viewBox="0 0 2500 2500" style="enable-background:new 0 0 2500 2500;" xml:space="preserve">
<style type="text/css">
	.st0{fill:#00DCFA;}
</style>
<g id="Layer_x0020_1">
	<path class="st0" d="M964.6,1535h570.8V965H964.6V1535z M204.2,1535.4h563.5V972c-145,21.3-275.4,89.9-374.8,189.5   C293.9,1260.7,225.7,1390.7,204.2,1535.4L204.2,1535.4z M767.7,1732.1H204.2c21.5,144.7,89.8,274.7,188.8,373.9   c120.9,121.3,287.7,196.5,471,196.5h4.4c183.3,0,350.1-75.3,471-196.5c98.9-99.2,167.1-229,188.7-373.5H767.7L767.7,1732.1   L767.7,1732.1z M2295.8,965h-563.4V1528c145-21.3,275.4-89.9,374.8-189.5C2206,1239.3,2274.2,1109.5,2295.8,965L2295.8,965z    M1732.3,767.5h563.4C2274.2,623,2206,493.1,2107.1,394c-120.9-121.3-287.7-196.5-471-196.5h-4.4c-183.3,0-350.1,75.3-471,196.5   c-98.9,99.1-167.1,229-188.7,373.5L1732.3,767.5L1732.3,767.5z M1727.2,1727.7c-21.8,201-112.9,381.9-248.6,518   c-156.5,157-372.6,254.4-610.2,254.4h-4.4c-237.7,0-453.7-97.4-610.2-254.4C97.2,2088.7,0,1872.1,0,1633.8s97.2-454.9,253.7-611.9   C390,885.3,571.3,793.8,772.8,772.4c21.8-201,112.9-381.9,248.6-518C1177.9,97.4,1394,0,1631.6,0h4.4   c237.7,0,453.7,97.4,610.2,254.4c156.5,157,253.7,373.5,253.7,611.9s-97.2,454.9-253.7,611.9   C2110,1614.7,1928.7,1706.2,1727.2,1727.7L1727.2,1727.7z"></path>
</g>
</svg>
